# xmcd CD database file
#
# Track frame offsets:
#	150
#	12753
#	24759
#	37151
#	50390
#	63035
#	75376
#	88484
#	100960
#	113711
#	127120
#	139511
#	152058
#	164482
#	179589
#	190937
#
# Disc length: 2710 seconds
#
# Revision: 2
# Processed by: cddbd v1.5.1PL0 Copyright (c) Steve Scherf et al.
# Submitted via: CDex 1.51
#
DISCID=ce0a9410
DTITLE=John Lee "Sonny Boy" Williamson - Nothing But The Blues - John Lee Williamson CD1
DYEAR=1900
DGENRE=Blues
TTITLE0=Black Gal Blues
TTITLE1=Bad Luck Blues
TTITLE2=My Black Name Blues
TTITLE3=Stop Breaking Down
TTITLE4=Train Fare Blues
TTITLE5=Check Up On My Baby Blues
TTITLE6=HooDoo Hoodoo
TTITLE7=Shake The Boogie
TTITLE8=Welfare Store Blues
TTITLE9=Better Cut That Out
TTITLE10=My Black Name Blues
TTITLE11=Good Gravy
TTITLE12=Good Gal Blues
TTITLE13=Love Me Baby
TTITLE14=Black Panter Blues
TTITLE15=I Have Got To Go
EXTD=
EXTT0=
EXTT1=
EXTT2=
EXTT3=
EXTT4=
EXTT5=
EXTT6=
EXTT7=
EXTT8=
EXTT9=
EXTT10=
EXTT11=
EXTT12=
EXTT13=
EXTT14=
EXTT15=
PLAYORDER=
